<?xml version="1.0" encoding="UTF-8" standalone="no"?>
<svg
   width="46"
   height="46"
   viewBox="0 0 46 46"
   fill="none"
   version="1.1"
   id="svg1"
   sodipodi:docname="ArrowRotateRight.svg"
   inkscape:export-filename="ArrowRotateRight.png"
   inkscape:export-xdpi="1068.5217"
   inkscape:export-ydpi="1068.5217"
   inkscape:version="1.4 (86a8ad7, 2024-10-11)"
   xmlns:inkscape="http://www.inkscape.org/namespaces/inkscape"
   xmlns:sodipodi="http://sodipodi.sourceforge.net/DTD/sodipodi-0.dtd"
   xmlns="http://www.w3.org/2000/svg"
   xmlns:svg="http://www.w3.org/2000/svg">
  <defs
     id="defs1" />
  <sodipodi:namedview
     id="namedview1"
     pagecolor="#ffffff"
     bordercolor="#000000"
     borderopacity="0.25"
     inkscape:showpageshadow="2"
     inkscape:pageopacity="0.0"
     inkscape:pagecheckerboard="0"
     inkscape:deskcolor="#d1d1d1"
     inkscape:zoom="12.036187"
     inkscape:cx="26.877282"
     inkscape:cy="28.622021"
     inkscape:window-width="1920"
     inkscape:window-height="1017"
     inkscape:window-x="-8"
     inkscape:window-y="-8"
     inkscape:window-maximized="1"
     inkscape:current-layer="svg1" />
  <path
     d="m 29.541701,13.618993 c -4.1936,-1.2751 -8.6611,-1.2699 -12.8375,0.0148 -4.1765,1.2848 -7.8748001,3.7913 -10.6265001,7.2029 -2.0044,2.4852 -3.4404,5.3699 -4.2272,8.4494 -0.4891,1.9143 0.9819,3.6707 2.9483,3.8635 1.9858,0.1946 3.7103,-1.2914 4.358,-3.1787 0.5636001,-1.6428 1.4093001,-3.1823 2.5073001,-4.5438 1.8574,-2.3028 4.3536,-3.995 7.1727,-4.8622 2.819,-0.8671 5.8345,-0.8704 8.6651,-0.0098 1.474,0.4482 2.8639,1.1203 4.1238,1.9861 l -3.4441,2.4356 c -1.3165,0.931 -1.0467,2.9568 0.4673,3.5109 l 12.90871,4.7224 c 1.31361,0.4803 2.70167,-0.5012 2.68636,-1.8999 l -0.1499,-13.7438 c -0.01764,-1.6123 -1.83816,-2.5418 -3.15467,-1.6111 l -3.18017,2.2488 c -2.37553,-2.0917 -5.17523,-3.66 -8.21753,-4.5851 z"
     fill="#ffffff"
     id="path1" />
</svg>
