<?xml version="1.0" encoding="UTF-8" standalone="no"?>
<svg
   width="55"
   height="55"
   viewBox="0 0 55 55"
   fill="none"
   version="1.1"
   id="svg2"
   sodipodi:docname="ArrowBtn.svg"
   inkscape:version="1.4 (86a8ad7, 2024-10-11)"
   xmlns:inkscape="http://www.inkscape.org/namespaces/inkscape"
   xmlns:sodipodi="http://sodipodi.sourceforge.net/DTD/sodipodi-0.dtd"
   xmlns="http://www.w3.org/2000/svg"
   xmlns:svg="http://www.w3.org/2000/svg">
  <defs
     id="defs2" />
  <sodipodi:namedview
     id="namedview2"
     pagecolor="#ffffff"
     bordercolor="#000000"
     borderopacity="0.25"
     inkscape:showpageshadow="2"
     inkscape:pageopacity="0.0"
     inkscape:pagecheckerboard="0"
     inkscape:deskcolor="#d1d1d1"
     inkscape:zoom="14.818182"
     inkscape:cx="27.5"
     inkscape:cy="27.5"
     inkscape:window-width="1920"
     inkscape:window-height="1017"
     inkscape:window-x="-8"
     inkscape:window-y="-8"
     inkscape:window-maximized="1"
     inkscape:current-layer="svg2" />
  <path
     d="M21.4378 10.5C24.1321 5.83334 30.8679 5.83333 33.5622 10.5L45.2535 30.75C47.9478 35.4167 44.5799 41.25 39.1913 41.25H15.8087C10.4201 41.25 7.05218 35.4167 9.74648 30.75L21.4378 10.5Z"
     fill="#A3A3A3"
     id="path1" />
  <path
     d="M24.042 5.9478C25.5842 3.29511 29.4158 3.29512 30.958 5.94781L46.9434 33.4426C48.8242 36.6776 45.6297 40.4934 42.1144 39.2108L28.871 34.379C27.9855 34.0559 27.0144 34.0559 26.129 34.379L12.8856 39.2108C9.3703 40.4934 6.17581 36.6776 8.05662 33.4426L24.042 5.9478Z"
     fill="#C9C8C8"
     id="path2"
     inkscape:export-filename="ArrowBtn.png"
     inkscape:export-xdpi="1228.7277"
     inkscape:export-ydpi="1228.7277" />
</svg>
