<?xml version="1.0" encoding="UTF-8" standalone="no"?>
<svg
   width="105"
   height="105"
   viewBox="0 0 105 105"
   fill="none"
   version="1.1"
   id="svg2"
   sodipodi:docname="AudioOFF.svg"
   inkscape:export-filename="AudioOFF.png"
   inkscape:export-xdpi="468.11429"
   inkscape:export-ydpi="468.11429"
   inkscape:version="1.4 (86a8ad7, 2024-10-11)"
   xmlns:inkscape="http://www.inkscape.org/namespaces/inkscape"
   xmlns:sodipodi="http://sodipodi.sourceforge.net/DTD/sodipodi-0.dtd"
   xmlns="http://www.w3.org/2000/svg"
   xmlns:svg="http://www.w3.org/2000/svg">
  <defs
     id="defs2" />
  <sodipodi:namedview
     id="namedview2"
     pagecolor="#ffffff"
     bordercolor="#000000"
     borderopacity="0.25"
     inkscape:showpageshadow="2"
     inkscape:pageopacity="0.0"
     inkscape:pagecheckerboard="0"
     inkscape:deskcolor="#d1d1d1"
     inkscape:zoom="7.7619048"
     inkscape:cx="52.5"
     inkscape:cy="52.5"
     inkscape:window-width="1920"
     inkscape:window-height="1017"
     inkscape:window-x="-8"
     inkscape:window-y="-8"
     inkscape:window-maximized="1"
     inkscape:current-layer="svg2" />
  <rect
     x="13"
     y="38"
     width="30"
     height="29"
     rx="8"
     fill="white"
     id="rect1" />
  <path
     d="M20.6071 58.4464C17.076 55.2684 17.076 49.7316 20.6071 46.5536L35.6483 33.0165C40.7965 28.3832 49 32.0367 49 38.9629L49 53.367L49 66.0371C49 72.9633 40.7965 76.6168 35.6483 71.9835L20.6071 58.4464Z"
     fill="white"
     id="path1" />
  <path
     d="M58.7578 35.7578C61.1009 33.4146 64.9 33.4146 67.2431 35.7578L75.9999 44.5146L84.4199 36.0947C86.763 33.7516 90.5621 33.7516 92.9052 36.0947C95.2483 38.4379 95.2483 42.2369 92.9052 44.5801L84.4853 53L92.4199 60.9345C94.763 63.2777 94.763 67.0767 92.4199 69.4199C90.0767 71.763 86.2776 71.7631 83.9345 69.4199L75.9999 61.4853L67.7285 69.7578C65.3855 72.1008 61.5863 72.1005 59.2431 69.7578C56.9 67.4147 56.9 63.6156 59.2431 61.2724L67.5146 53L58.7578 44.2422C56.4147 41.899 56.4147 38.1009 58.7578 35.7578Z"
     fill="white"
     id="path2" />
</svg>
