<?xml version="1.0" encoding="UTF-8" standalone="no"?>
<svg
   width="331"
   height="187"
   viewBox="0 0 331 187"
   fill="none"
   version="1.1"
   id="svg3"
   sodipodi:docname="Destiny Painter Name.svg"
   inkscape:export-filename="Destiny Painter Name.png"
   inkscape:export-xdpi="262.84491"
   inkscape:export-ydpi="262.84491"
   inkscape:version="1.4 (86a8ad7, 2024-10-11)"
   xmlns:inkscape="http://www.inkscape.org/namespaces/inkscape"
   xmlns:sodipodi="http://sodipodi.sourceforge.net/DTD/sodipodi-0.dtd"
   xmlns="http://www.w3.org/2000/svg"
   xmlns:svg="http://www.w3.org/2000/svg">
  <sodipodi:namedview
     id="namedview3"
     pagecolor="#ffffff"
     bordercolor="#000000"
     borderopacity="0.25"
     inkscape:showpageshadow="2"
     inkscape:pageopacity="0.0"
     inkscape:pagecheckerboard="0"
     inkscape:deskcolor="#d1d1d1"
     inkscape:zoom="4.3582888"
     inkscape:cx="165.54663"
     inkscape:cy="93.5"
     inkscape:window-width="1920"
     inkscape:window-height="1017"
     inkscape:window-x="-8"
     inkscape:window-y="-8"
     inkscape:window-maximized="1"
     inkscape:current-layer="svg3" />
  <g
     filter="url(#filter0_d_110_280)"
     id="g1">
    <path
       d="M1.15039 1.41016H11.7461V81H0.955078L1.15039 1.41016ZM19.0215 69.916C19.0215 69.916 46.707 64.8867 46.8047 39.3008C46.9512 13.7637 19.0703 10.9316 19.0703 10.9316L18.8262 1.60547C18.8262 1.60547 57.2539 2.82617 57.498 39.2031C57.7422 75.5801 18.8262 80.7559 18.8262 80.7559L19.0215 69.916ZM95.4609 81H68.752V3.2168H95.4609V11.8105H78.0293V41.6934H92.9707V50.2871H78.0293V72.4062H95.4609V81ZM121.07 81.9277C118.141 81.9277 115.357 81.4883 112.721 80.6582C110.035 79.8281 107.74 78.7539 105.836 77.4355L110.084 69.3301C111.695 70.2578 113.404 71.0879 115.211 71.8203C117.018 72.6016 118.971 72.9922 121.07 72.9922C123.658 72.9922 125.953 72.2598 127.955 70.7949C129.908 69.3301 130.885 66.9863 130.885 63.8125C130.885 61.6641 130.299 59.3203 129.078 56.7812C127.857 54.291 125.66 51.1172 122.584 47.2598L116.188 39.3008C113.014 35.3457 110.719 31.7324 109.4 28.4609C108.082 25.2383 107.398 22.1621 107.398 19.2812C107.398 14.3984 108.961 10.3457 112.086 7.12305C115.211 3.94922 119.508 2.33789 125.025 2.33789C127.223 2.33789 129.469 2.63086 131.715 3.16797C133.912 3.75391 136.109 4.68164 138.209 5.90234L134.205 13.4707C133.033 12.7871 131.764 12.2012 130.445 11.6641C129.127 11.1758 127.613 10.9316 126.002 10.9316C123.316 10.9316 121.119 11.7129 119.508 13.2266C117.848 14.7402 117.018 16.8887 117.018 19.623C117.018 21.1367 117.408 22.748 118.141 24.5547C118.873 26.3613 120.338 28.6562 122.535 31.5371L131.861 43.5488C134.254 46.6738 136.305 49.7012 138.014 52.6309C139.674 55.6094 140.504 59.0762 140.504 63.0801C140.504 66.9863 139.674 70.3555 138.014 73.1387C136.305 75.9707 134.01 78.1191 131.129 79.6328C128.199 81.1465 124.83 81.9277 121.07 81.9277ZM168.848 81H159.57V11.8105H147.119V3.2168H181.299V11.8105H168.848V81ZM200.658 81H191.381V3.2168H200.658V81ZM216.502 81L216.893 0.824219L225.291 13.1289L225.633 81H216.502ZM267.771 0.824219L267.43 81L258.201 69.0859L258.494 0.824219H267.771ZM228.855 16.6445L228.758 31.6348L254.344 65.6191L254.246 51.4102L228.855 16.6445ZM301.682 80.9512L296.115 81V54.877L276.145 3.36328H287.863L301.73 39.4473L301.682 80.9512ZM305.393 80.8047L310.91 80.9023V54.877L330.881 3.26562H319.211L305.295 39.3496L305.393 80.8047ZM6.66797 102.191V181H15.3105V102.191H6.66797ZM20.4863 151.264L20.5352 141.791C20.5352 141.791 38.6992 142.621 38.4551 126.508C38.2109 110.932 20.4375 111.566 20.4375 111.566V102.24C20.4375 102.24 49.2461 101.166 49.6367 126.605C50.0273 152.68 20.4863 151.264 20.4863 151.264ZM88.7715 168.061H68.6543L65.2852 181H55.666L78.5664 100.873H78.8594L101.76 181H92.1406L88.7715 168.061ZM80.7637 137.152L78.8105 126.41H78.7129L76.7598 137.152L70.8027 159.955H86.6719L80.7637 137.152ZM119.996 181H110.719V103.217H119.996V181ZM135.84 181L136.23 100.824L144.629 113.129L144.971 181H135.84ZM187.109 100.824L186.768 181L177.539 169.086L177.832 100.824H187.109ZM148.193 116.645L148.096 131.635L173.682 165.619L173.584 151.41L148.193 116.645ZM218.334 181H209.057V111.811H196.605V103.217H230.785V111.811H218.334V181ZM266.99 181H240.281V103.217H266.99V111.811H249.559V141.693H264.5V150.287H249.559V172.406H266.99V181ZM280.246 102.191V181H288.889V102.191H280.246ZM294.064 151.264L294.113 141.791C294.113 141.791 312.277 142.621 312.033 126.508C311.789 110.932 294.016 111.566 294.016 111.566V102.24C294.016 102.24 322.824 101.166 323.215 126.605C323.605 152.68 294.064 151.264 294.064 151.264ZM294.064 153.461L323.312 181.195H310.715L294.162 165.668L294.064 153.461Z"
       fill="white"
       id="path1" />
  </g>
  <defs
     id="defs3">
    <filter
       id="filter0_d_110_280"
       x="0.955078"
       y="0.824219"
       width="329.926"
       height="185.371"
       filterUnits="userSpaceOnUse"
       color-interpolation-filters="sRGB">
      <feFlood
         flood-opacity="0"
         result="BackgroundImageFix"
         id="feFlood1" />
      <feColorMatrix
         in="SourceAlpha"
         type="matrix"
         values="0 0 0 0 0 0 0 0 0 0 0 0 0 0 0 0 0 0 127 0"
         result="hardAlpha"
         id="feColorMatrix1" />
      <feOffset
         dy="5"
         id="feOffset1" />
      <feComposite
         in2="hardAlpha"
         operator="out"
         id="feComposite1" />
      <feColorMatrix
         type="matrix"
         values="0 0 0 0 0.788235 0 0 0 0 0.784314 0 0 0 0 0.784314 0 0 0 1 0"
         id="feColorMatrix2" />
      <feBlend
         mode="normal"
         in2="BackgroundImageFix"
         result="effect1_dropShadow_110_280"
         id="feBlend2" />
      <feBlend
         mode="normal"
         in="SourceGraphic"
         in2="effect1_dropShadow_110_280"
         result="shape"
         id="feBlend3" />
    </filter>
  </defs>
</svg>
