<?xml version="1.0" encoding="UTF-8" standalone="no"?>
<svg
   width="40"
   height="43"
   viewBox="0 0 40 43"
   fill="none"
   version="1.1"
   id="svg7"
   sodipodi:docname="Doors.svg"
   inkscape:export-filename="Doors.png"
   inkscape:export-xdpi="1228.8"
   inkscape:export-ydpi="1228.8"
   inkscape:version="1.4 (86a8ad7, 2024-10-11)"
   xmlns:inkscape="http://www.inkscape.org/namespaces/inkscape"
   xmlns:sodipodi="http://sodipodi.sourceforge.net/DTD/sodipodi-0.dtd"
   xmlns="http://www.w3.org/2000/svg"
   xmlns:svg="http://www.w3.org/2000/svg">
  <defs
     id="defs7" />
  <sodipodi:namedview
     id="namedview7"
     pagecolor="#ffffff"
     bordercolor="#000000"
     borderopacity="0.25"
     inkscape:showpageshadow="2"
     inkscape:pageopacity="0.0"
     inkscape:pagecheckerboard="0"
     inkscape:deskcolor="#d1d1d1"
     inkscape:zoom="18.953488"
     inkscape:cx="20.022699"
     inkscape:cy="21.5"
     inkscape:window-width="1920"
     inkscape:window-height="1017"
     inkscape:window-x="-8"
     inkscape:window-y="-8"
     inkscape:window-maximized="1"
     inkscape:current-layer="svg7" />
  <rect
     x="18.8235"
     y="28.2353"
     width="4.70588"
     height="10.5882"
     rx="2.35294"
     fill="white"
     id="rect1" />
  <rect
     x="18.8235"
     y="3.52942"
     width="4.70588"
     height="10.5882"
     rx="2.35294"
     fill="white"
     id="rect2" />
  <rect
     x="1.17648"
     y="3.52942"
     width="22.3529"
     height="4.70588"
     rx="2.35294"
     fill="white"
     id="rect3" />
  <rect
     x="1.17648"
     y="34.1177"
     width="22.3529"
     height="4.70588"
     rx="2.35294"
     fill="white"
     id="rect4" />
  <rect
     x="17.6471"
     y="18.8235"
     width="22.3529"
     height="4.70588"
     rx="2.35294"
     fill="white"
     id="rect5" />
  <rect
     x="16.7059"
     y="21.1765"
     width="17.3313"
     height="4.70588"
     rx="2.35294"
     transform="rotate(-45 16.7059 21.1765)"
     fill="white"
     id="rect6" />
  <rect
     x="20.0335"
     y="17.8824"
     width="17.3313"
     height="4.70588"
     rx="2.35294"
     transform="rotate(45 20.0335 17.8824)"
     fill="white"
     id="rect7" />
  <path
     d="M0 5.01747C0 4.13426 0.579336 3.35561 1.4253 3.10182L9.19001 0.772409C10.4732 0.387441 11.7647 1.34834 11.7647 2.68806V39.6649C11.7647 41.0046 10.4732 41.9655 9.19001 41.5805L1.4253 39.2511C0.579335 38.9973 0 38.2187 0 37.3355V5.01747Z"
     fill="white"
     id="path7" />
</svg>
