<?xml version="1.0" encoding="UTF-8" standalone="no"?>
<svg
   width="70"
   height="70"
   viewBox="0 0 70 70"
   fill="none"
   version="1.1"
   id="svg2"
   sodipodi:docname="Lock.svg"
   inkscape:export-filename="Lock.png"
   inkscape:export-xdpi="702.17145"
   inkscape:export-ydpi="702.17145"
   inkscape:version="1.4 (86a8ad7, 2024-10-11)"
   xmlns:inkscape="http://www.inkscape.org/namespaces/inkscape"
   xmlns:sodipodi="http://sodipodi.sourceforge.net/DTD/sodipodi-0.dtd"
   xmlns="http://www.w3.org/2000/svg"
   xmlns:svg="http://www.w3.org/2000/svg">
  <defs
     id="defs2" />
  <sodipodi:namedview
     id="namedview2"
     pagecolor="#ffffff"
     bordercolor="#000000"
     borderopacity="0.25"
     inkscape:showpageshadow="2"
     inkscape:pageopacity="0.0"
     inkscape:pagecheckerboard="0"
     inkscape:deskcolor="#d1d1d1"
     inkscape:zoom="11.642857"
     inkscape:cx="35"
     inkscape:cy="35"
     inkscape:window-width="1920"
     inkscape:window-height="1017"
     inkscape:window-x="-8"
     inkscape:window-y="-8"
     inkscape:window-maximized="1"
     inkscape:current-layer="svg2" />
  <path
     d="M34.375 0C46.4562 0 56.25 9.79377 56.25 21.875C56.25 24.6444 55.7337 27.2929 54.7949 29.7314C53.3471 27.8572 51.6397 26.1944 49.7256 24.7969C49.9047 23.8502 50 22.8737 50 21.875C50 13.2456 43.0044 6.25 34.375 6.25C25.7456 6.25 18.75 13.2456 18.75 21.875C18.75 23.167 18.9075 24.4223 19.2031 25.623C17.3704 27.1189 15.7545 28.8698 14.4082 30.8213C13.1826 28.0902 12.5 25.0624 12.5 21.875C12.5 9.79377 22.2938 0 34.375 0Z"
     fill="white"
     id="path1" />
  <path
     d="M35 20C48.8071 20 60 31.1929 60 45C60 58.8071 48.8071 70 35 70C21.1929 70 10 58.8071 10 45C10 31.1929 21.1929 20 35 20ZM35 37C30.5817 37 27 40.5817 27 45C27 49.4183 30.5817 53 35 53C39.4183 53 43 49.4183 43 45C43 40.5817 39.4183 37 35 37Z"
     fill="white"
     id="path2" />
</svg>
