<?xml version="1.0" encoding="UTF-8" standalone="no"?>
<svg
   width="70"
   height="70"
   viewBox="0 0 70 70"
   fill="none"
   version="1.1"
   id="svg2"
   sodipodi:docname="LockUnlocked.svg"
   inkscape:export-filename="LockUnlocked.png"
   inkscape:export-xdpi="702.17145"
   inkscape:export-ydpi="702.17145"
   inkscape:version="1.4 (86a8ad7, 2024-10-11)"
   xmlns:inkscape="http://www.inkscape.org/namespaces/inkscape"
   xmlns:sodipodi="http://sodipodi.sourceforge.net/DTD/sodipodi-0.dtd"
   xmlns="http://www.w3.org/2000/svg"
   xmlns:svg="http://www.w3.org/2000/svg">
  <defs
     id="defs2" />
  <sodipodi:namedview
     id="namedview2"
     pagecolor="#ffffff"
     bordercolor="#000000"
     borderopacity="0.25"
     inkscape:showpageshadow="2"
     inkscape:pageopacity="0.0"
     inkscape:pagecheckerboard="0"
     inkscape:deskcolor="#d1d1d1"
     inkscape:zoom="11.642857"
     inkscape:cx="35"
     inkscape:cy="35"
     inkscape:window-width="1920"
     inkscape:window-height="1017"
     inkscape:window-x="-8"
     inkscape:window-y="-8"
     inkscape:window-maximized="1"
     inkscape:current-layer="svg2" />
  <path
     d="M28.7133 0.745835C34.3172 -0.755732 40.2885 0.0296003 45.3129 2.93041C50.3371 5.83122 54.0027 10.6097 55.5043 16.2136C56.7083 20.7074 56.4402 25.4369 54.7914 29.7253C53.3431 27.8516 51.6346 26.1897 49.7201 24.7927C50.1555 22.5035 50.0818 20.1245 49.4672 17.8308C48.3946 13.8282 45.7764 10.4155 42.1879 8.34349C38.5992 6.27158 34.3341 5.70962 30.3314 6.78197C27.1098 7.64521 24.2703 9.51083 22.2045 12.0769C21.044 12.9813 19.467 13.2672 18.1781 12.5232C16.661 11.6473 16.1244 9.68978 17.2103 8.31517C20.1124 4.64145 24.1373 1.972 28.7133 0.745835Z"
     fill="white"
     id="path1" />
  <path
     d="M35 20C48.8071 20 60 31.1929 60 45C60 58.8071 48.8071 70 35 70C21.1929 70 10 58.8071 10 45C10 31.1929 21.1929 20 35 20ZM35 37C30.5817 37 27 40.5817 27 45C27 49.4183 30.5817 53 35 53C39.4183 53 43 49.4183 43 45C43 40.5817 39.4183 37 35 37Z"
     fill="white"
     id="path2" />
</svg>
