<?xml version="1.0" encoding="UTF-8" standalone="no"?>
<svg
   width="52"
   height="52"
   viewBox="0 0 52 52"
   fill="none"
   version="1.1"
   id="svg8"
   sodipodi:docname="Publish.svg"
   inkscape:export-filename="Publish.png"
   inkscape:export-xdpi="945.23077"
   inkscape:export-ydpi="945.23077"
   inkscape:version="1.4 (86a8ad7, 2024-10-11)"
   xmlns:inkscape="http://www.inkscape.org/namespaces/inkscape"
   xmlns:sodipodi="http://sodipodi.sourceforge.net/DTD/sodipodi-0.dtd"
   xmlns="http://www.w3.org/2000/svg"
   xmlns:svg="http://www.w3.org/2000/svg">
  <defs
     id="defs8" />
  <sodipodi:namedview
     id="namedview8"
     pagecolor="#ffffff"
     bordercolor="#000000"
     borderopacity="0.25"
     inkscape:showpageshadow="2"
     inkscape:pageopacity="0.0"
     inkscape:pagecheckerboard="0"
     inkscape:deskcolor="#d1d1d1"
     inkscape:zoom="15.673077"
     inkscape:cx="26"
     inkscape:cy="26"
     inkscape:window-width="1920"
     inkscape:window-height="1017"
     inkscape:window-x="-8"
     inkscape:window-y="-8"
     inkscape:window-maximized="1"
     inkscape:current-layer="svg8" />
  <rect
     x="34.6565"
     y="29.1621"
     width="6.0298"
     height="13.5671"
     rx="3.0149"
     transform="rotate(-90 34.6565 29.1621)"
     fill="white"
     id="rect1" />
  <rect
     x="3"
     y="29.1621"
     width="6.0298"
     height="13.5671"
     rx="3.0149"
     transform="rotate(-90 3 29.1621)"
     fill="white"
     id="rect2" />
  <rect
     x="3"
     y="51.7739"
     width="28.6416"
     height="6.0298"
     rx="3.0149"
     transform="rotate(-90 3 51.7739)"
     fill="white"
     id="rect3" />
  <rect
     x="42.1938"
     y="51.7739"
     width="28.6416"
     height="6.0298"
     rx="3.0149"
     transform="rotate(-90 42.1938 51.7739)"
     fill="white"
     id="rect4" />
  <rect
     x="3.02612"
     y="52"
     width="6.03508"
     height="45.167"
     rx="3.01754"
     transform="rotate(-90 3.02612 52)"
     fill="white"
     id="rect5" />
  <rect
     x="22.5969"
     y="30.6696"
     width="28.6416"
     height="6.0298"
     rx="3.0149"
     transform="rotate(-90 22.5969 30.6696)"
     fill="white"
     id="rect6" />
  <rect
     x="9.90918"
     y="15.7028"
     width="22.2072"
     height="6.0298"
     rx="3.0149"
     transform="rotate(-45 9.90918 15.7028)"
     fill="white"
     id="rect7" />
  <rect
     x="37.094"
     y="19.9667"
     width="22.2072"
     height="6.0298"
     rx="3.0149"
     transform="rotate(-135 37.094 19.9667)"
     fill="white"
     id="rect8" />
</svg>
