<?xml version="1.0" encoding="UTF-8" standalone="no"?>
<svg
   width="31"
   height="29"
   viewBox="0 0 31 29"
   fill="none"
   version="1.1"
   id="svg1"
   sodipodi:docname="Star.svg"
   inkscape:version="1.4 (86a8ad7, 2024-10-11)"
   xmlns:inkscape="http://www.inkscape.org/namespaces/inkscape"
   xmlns:sodipodi="http://sodipodi.sourceforge.net/DTD/sodipodi-0.dtd"
   xmlns="http://www.w3.org/2000/svg"
   xmlns:svg="http://www.w3.org/2000/svg">
  <defs
     id="defs1" />
  <sodipodi:namedview
     id="namedview1"
     pagecolor="#ffffff"
     bordercolor="#000000"
     borderopacity="0.25"
     inkscape:showpageshadow="2"
     inkscape:pageopacity="0.0"
     inkscape:pagecheckerboard="0"
     inkscape:deskcolor="#d1d1d1"
     inkscape:zoom="28.103448"
     inkscape:cx="15.496319"
     inkscape:cy="14.5"
     inkscape:window-width="1920"
     inkscape:window-height="1017"
     inkscape:window-x="-8"
     inkscape:window-y="-8"
     inkscape:window-maximized="1"
     inkscape:current-layer="svg1" />
  <path
     d="M11.2538 2.82937C13.2102 -0.317203 17.7898 -0.317199 19.7462 2.82937L20.9597 4.78111C21.648 5.88821 22.7415 6.68268 24.0071 6.99522L26.2383 7.54621C29.8355 8.4345 31.2506 12.7899 28.8626 15.6229L27.3814 17.3801C26.5412 18.3769 26.1235 19.6624 26.2174 20.9626L26.3828 23.2549C26.6496 26.9505 22.9446 29.6423 19.5124 28.2466L17.3834 27.3809C16.1758 26.8898 14.8242 26.8898 13.6166 27.3809L11.4876 28.2466C8.05536 29.6423 4.35041 26.9505 4.61716 23.2549L4.78263 20.9626C4.87648 19.6624 4.4588 18.3769 3.6186 17.3801L2.13737 15.6229C-0.250637 12.7899 1.16453 8.4345 4.76166 7.54621L6.99286 6.99522C8.25848 6.68268 9.35199 5.8882 10.0403 4.78111L11.2538 2.82937Z"
     fill="white"
     id="path1"
     inkscape:export-filename="Star.png"
     inkscape:export-xdpi="1689.8628"
     inkscape:export-ydpi="1689.8628" />
</svg>
